# xmcd
#
# Track frame offsets:
#	150
#	13882
#	34625
#	44100
#	46822
#	59750
#	62849
#	78469
#	79977
#	93114
#	95192
#	107385
#	108070
#	121613
#	133072
#	144984
#	145776
#	155591
#	161753
#	179266
#	189174
#	191157
#	201306
#	202374
#
# Disc length: 2861 seconds
#
# Revision: 0
# Processed by: cddbd v1.4PL0 Copyright (c) Steve Scherf et al.
# Submitted via: audiograbber 1.80
#
DISCID=5b0b2b18
DTITLE=dick curless - Hard, Hard Traveling Man disc 3
DYEAR=1900
DGENRE=
TTITLE0=Swingin' Preacher 
TTITLE1=Country Soul 
TTITLE2=Get On Board My Wagon 
TTITLE3=Intro 
TTITLE4=Chick Inspector (That's Where My Money Goes) 
TTITLE5=Intro 
TTITLE6=Truck Stop 
TTITLE7=Intro 
TTITLE8=I've Come Awful Close 
TTITLE9=Intro 
TTITLE10=The Lonesome Road 
TTITLE11=Intro 
TTITLE12=15 Gears And 14 Wheels 
TTITLE13=Drag 'Em Off The Interstate, Sock It To 'Em, 
TTITLE14=Big Wheel Cannonball 
TTITLE15=Intro 
TTITLE16=Sixty Minute Man 
TTITLE17=Intro 
TTITLE18=Evil Hearted Me 
TTITLE19=(I'm Gonna Move To) The Outkirts Of Town 
TTITLE20=Interruption 
TTITLE21=(I'm Gonna Move To) The Outskirts Of Town 
TTITLE22=Intro 
TTITLE23=(Drinkin' Beer And) Singing A Country Song 
EXTD=
EXTT0=
EXTT1=
EXTT2=
EXTT3=
EXTT4=
EXTT5=
EXTT6=
EXTT7=
EXTT8=
EXTT9=
EXTT10=
EXTT11=
EXTT12=
EXTT13=
EXTT14=
EXTT15=
EXTT16=
EXTT17=
EXTT18=
EXTT19=
EXTT20=
EXTT21=
EXTT22=
EXTT23=
PLAYORDER=
